<svg xmlns="http://www.w3.org/2000/svg" viewBox="0 0 360 250" font-family="Poppins, system-ui, -apple-system, 'Segoe UI', Roboto, sans-serif" xmlns:c2pa="http://c2pa.org/manifest"><metadata><c2pa:manifest>AAAWgmp1bWIAAAAeanVtZGMycGEAEQAQgAAAqgA4m3EDYzJwYQAAABZcanVtYgAAAEdqdW1kYzJtYQARABCAAACqADibcQN1cm46YzJwYToxY2UwMzJjNS0zNjI2LTQ2ODctODExYy0zYjdhM2EwNzg5NzkAAAADl2p1bWIAAAApanVtZGMyYXMAEQAQgAAAqgA4m3EDYzJwYS5hc3NlcnRpb25zAAAAALxqdW1iAAAARGp1bWRjYm9yABEAEIAAAKoAOJtxE2MycGEuaW5ncmVkaWVudC52MwAAAAAYYzJzaCk4i2wxSLcml/NtCFLLS2IAAABwY2JvcqNpZGM6Zm9ybWF0bWltYWdlL3N2Zyt4bWxqaW5zdGFuY2VJRHgseG1wOmlpZDpmYzk5Zjk3OS1kNDQ2LTQzY2YtODZlYS1hMzVmMzM0ZWJkYzdscmVsYXRpb25zaGlwaHBhcmVudE9mAAAB4mp1bWIAAABBanVtZGNib3IAEQAQgAAAqgA4m3ETYzJwYS5hY3Rpb25zLnYyAAAAABhjMnNo3m/4Bt7B9Aj+P6TBLgWw6gAAAZljYm9yomdhY3Rpb25zgqJmYWN0aW9ua2MycGEub3BlbmVkanBhcmFtZXRlcnOha2luZ3JlZGllbnRzgaJjdXJseC1zZWxmI2p1bWJmPWMycGEuYXNzZXJ0aW9ucy9jMnBhLmluZ3JlZGllbnQudjNkaGFzaFgg7cnV2esO2WmSjSdXqwqRBnFMmf3GSEZQ4zFmJXyxdd2kZmFjdGlvbngdY29tLmFudGhyb3BpYy5jbGF1ZGUucHJvdmlkZWRqcGFyYW1ldGVyc6F4H2NvbS5hbnRocm9waWMub3JpZ2luLWNvbmZpZGVuY2VndW5rbm93bmtkZXNjcmlwdGlvbnhmQ2xhdWRlIHByb3ZpZGVkIHRoaXMgZmlsZSBhdCB0aGUgcmVxdWVzdCBvZiBhIHVzZXIgYW5kIG1heSBoYXZlIGNyZWF0ZWQgb3IgbW9kaWZpZWQgdGhlIGZpbGUgY29udGVudHMubXNvZnR3YXJlQWdlbnShZG5hbWVmQ2xhdWRlcmFsbEFjdGlvbnNJbmNsdWRlZPUAAADIanVtYgAAAEBqdW1kY2JvcgARABCAAACqADibcRNjMnBhLmhhc2guZGF0YQAAAAAYYzJzaHKT8jfUDuaXu+ZlQDcsW4UAAACAY2JvcqVjYWxnZnNoYTI1NmNwYWRNAAAAAAAAAAAAAAAAAGRoYXNoWCBBfRv6V9DgQEX6RG5oKwCz5oS/szgli0q0t+kpA3CoeWRuYW1lbmp1bWJmIG1hbmlmZXN0amV4Y2x1c2lvbnOBomVzdGFydBjNZmxlbmd0aBkeBAAAAj5qdW1iAAAAJ2p1bWRjMmNsABEAEIAAAKoAOJtxA2MycGEuY2xhaW0udjIAAAACD2Nib3KlY2FsZ2ZzaGEyNTZpc2lnbmF0dXJleE1zZWxmI2p1bWJmPS9jMnBhL3VybjpjMnBhOjFjZTAzMmM1LTM2MjYtNDY4Ny04MTFjLTNiN2EzYTA3ODk3OS9jMnBhLnNpZ25hdHVyZWppbnN0YW5jZUlEeCx4bXA6aWlkOjJiMTJjZWZhLWI3NGItNGUzMC1iYmE4LTc5NTJmOTFhMjM0NXJjcmVhdGVkX2Fzc2VydGlvbnODomN1cmx4LXNlbGYjanVtYmY9YzJwYS5hc3NlcnRpb25zL2MycGEuaW5ncmVkaWVudC52M2RoYXNoWCDtydXZ6w7ZaZKNJ1erCpEGcUyZ/cZIRlDjMWYlfLF13aJjdXJseCpzZWxmI2p1bWJmPWMycGEuYXNzZXJ0aW9ucy9jMnBhLmFjdGlvbnMudjJkaGFzaFggYZg0ZNbJ/zHYfqt+cctHhihh+GMat377ELKhCeOud9WiY3VybHgpc2VsZiNqdW1iZj1jMnBhLmFzc2VydGlvbnMvYzJwYS5oYXNoLmRhdGFkaGFzaFggbBYUO7XiPCModCWLL1qWEcH6l23GNHAmzLMNeylxYp10Y2xhaW1fZ2VuZXJhdG9yX2luZm+jZG5hbWVvQW50aHJvcGljIEZpbGVzZ3ZlcnNpb25lMS4wLjBrc3BlY1ZlcnNpb25lMi40LjAAABA4anVtYgAAAChqdW1kYzJjcwARABCAAACqADibcQNjMnBhLnNpZ25hdHVyZQAAABAIY2JvctKEWQISogEmGCFZAgowggIGMIIBjaADAgECAhRA5aAK7sI50L64g/oGQgU9Z1UTADAKBggqhkjOPQQDAzBJMRcwFQYDVQQKEw5BbnRocm9waWMsIFBCQzEuMCwGA1UEAxMlQW50aHJvcGljIENvbnRlbnQgQ3JlZGVudGlhbHMgUm9vdCBDQTAeFw0yNjA4MDcxODQzNTZaFw0yODA4MDYxOTQzNTZaMEQxFzAVBgNVBAoTDkFudGhyb3BpYywgUEJDMSkwJwYDVQQDEyBBbnRocm9waWMgQ2xhdWRlIENvbnRlbnQgU2lnbmluZzBZMBMGByqGSM49AgEGCCqGSM49AwEHA0IABJh6CmvLUBgFFNU0vUKlOVtE6djd17L5SuwX0LemFisBM3dkd/3cyjxFA3Qo5S46fX0/ihY0VZ7mfb9KF703t5OjWDBWMA4GA1UdDwEB/wQEAwIHgDAVBgNVHSUEDjAMBgorBgEEAYPoXgIBMAwGA1UdEwEB/wQCMAAwHwYDVR0jBBgwFoAUzlHiBIFOZFsj+OPEz5o+nMHXXMIwCgYIKoZIzj0EAwMDZwAwZAIwMXMdFJ4BetLLVY7ORuE9noqbbAZOZn/aArXyTwFAZfKrPzxF2vPoJNf1+UCdg1XGAjBwX1zd9WGqYkqmL5SFqw1QySjr1zJfpJM9+1rdDwSPLMOPOjKuiXjoU/pUUeG9RwmhY3BhZFkNngAAAAAAAAAAAAAAAAAAAAAAAAAAAAAAAAAAAAAAAAAAAAAAAAAAAAAAAAAAAAAAAAAAAAAAAAAAAAAAAAAAAAAAAAAAAAAAAAAAAAAAAAAAAAAAAAAAAAAAAAAAAAAAAAAAAAAAAAAAAAAAAAAAAAAAAAAAAAAAAAAAAAAAAAAAAAAAAAAAAAAAAAAAAAAAAAAAAAAAAAAAAAAAAAAAAAAAAAAAAAAAAAAAAAAAAAAAAAAAAAAAAAAAAAAAAAAAAAAAAAAAAAAAAAAAAAAAAAAAAAAAAAAAAAAAAAAAAAAAAAAAAAAAAAAAAAAAAAAAAAAAAAAAAAAAAAAAAAAAAAAAAAAAAAAAAAAAAAAAAAAAAAAAAAAAAAAAAAAAAAAAAAAAAAAAAAAAAAAAAAAAAAAAAAAAAAAAAAAAAAAAAAAAAAAAAAAAAAAAAAAAAAAAAAAAAAAAAAAAAAAAAAAAAAAAAAAAAAAAAAAAAAAAAAAAAAAAAAAAAAAAAAAAAAAAAAAAAAAAAAAAAAAAAAAAAAAAAAAAAAAAAAAAAAAAAAAAAAAAAAAAAAAAAAAAAAAAAAAAAAAAAAAAAAAAAAAAAAAAAAAAAAAAAAAAAAAAAAAAAAAAAAAAAAAAAAAAAAAAAAAAAAAAAAAAAAAAAAAAAAAAAAAAAAAAAAAAAAAAAAAAAAAAAAAAAAAAAAAAAAAAAAAAAAAAAAAAAAAAAAAAAAAAAAAAAAAAAAAAAAAAAAAAAAAAAAAAAAAAAAAAAAAAAAAAAAAAAAAAAAAAAAAAAAAAAAAAAAAAAAAAAAAAAAAAAAAAAAAAAAAAAAAAAAAAAAAAAAAAAAAAAAAAAAAAAAAAAAAAAAAAAAAAAAAAAAAAAAAAAAAAAAAAAAAAAAAAAAAAAAAAAAAAAAAAAAAAAAAAAAAAAAAAAAAAAAAAAAAAAAAAAAAAAAAAAAAAAAAAAAAAAAAAAAAAAAAAAAAAAAAAAAAAAAAAAAAAAAAAAAAAAAAAAAAAAAAAAAAAAAAAAAAAAAAAAAAAAAAAAAAAAAAAAAAAAAAAAAAAAAAAAAAAAAAAAAAAAAAAAAAAAAAAAAAAAAAAAAAAAAAAAAAAAAAAAAAAAAAAAAAAAAAAAAAAAAAAAAAAAAAAAAAAAAAAAAAAAAAAAAAAAAAAAAAAAAAAAAAAAAAAAAAAAAAAAAAAAAAAAAAAAAAAAAAAAAAAAAAAAAAAAAAAAAAAAAAAAAAAAAAAAAAAAAAAAAAAAAAAAAAAAAAAAAAAAAAAAAAAAAAAAAAAAAAAAAAAAAAAAAAAAAAAAAAAAAAAAAAAAAAAAAAAAAAAAAAAAAAAAAAAAAAAAAAAAAAAAAAAAAAAAAAAAAAAAAAAAAAAAAAAAAAAAAAAAAAAAAAAAAAAAAAAAAAAAAAAAAAAAAAAAAAAAAAAAAAAAAAAAAAAAAAAAAAAAAAAAAAAAAAAAAAAAAAAAAAAAAAAAAAAAAAAAAAAAAAAAAAAAAAAAAAAAAAAAAAAAAAAAAAAAAAAAAAAAAAAAAAAAAAAAAAAAAAAAAAAAAAAAAAAAAAAAAAAAAAAAAAAAAAAAAAAAAAAAAAAAAAAAAAAAAAAAAAAAAAAAAAAAAAAAAAAAAAAAAAAAAAAAAAAAAAAAAAAAAAAAAAAAAAAAAAAAAAAAAAAAAAAAAAAAAAAAAAAAAAAAAAAAAAAAAAAAAAAAAAAAAAAAAAAAAAAAAAAAAAAAAAAAAAAAAAAAAAAAAAAAAAAAAAAAAAAAAAAAAAAAAAAAAAAAAAAAAAAAAAAAAAAAAAAAAAAAAAAAAAAAAAAAAAAAAAAAAAAAAAAAAAAAAAAAAAAAAAAAAAAAAAAAAAAAAAAAAAAAAAAAAAAAAAAAAAAAAAAAAAAAAAAAAAAAAAAAAAAAAAAAAAAAAAAAAAAAAAAAAAAAAAAAAAAAAAAAAAAAAAAAAAAAAAAAAAAAAAAAAAAAAAAAAAAAAAAAAAAAAAAAAAAAAAAAAAAAAAAAAAAAAAAAAAAAAAAAAAAAAAAAAAAAAAAAAAAAAAAAAAAAAAAAAAAAAAAAAAAAAAAAAAAAAAAAAAAAAAAAAAAAAAAAAAAAAAAAAAAAAAAAAAAAAAAAAAAAAAAAAAAAAAAAAAAAAAAAAAAAAAAAAAAAAAAAAAAAAAAAAAAAAAAAAAAAAAAAAAAAAAAAAAAAAAAAAAAAAAAAAAAAAAAAAAAAAAAAAAAAAAAAAAAAAAAAAAAAAAAAAAAAAAAAAAAAAAAAAAAAAAAAAAAAAAAAAAAAAAAAAAAAAAAAAAAAAAAAAAAAAAAAAAAAAAAAAAAAAAAAAAAAAAAAAAAAAAAAAAAAAAAAAAAAAAAAAAAAAAAAAAAAAAAAAAAAAAAAAAAAAAAAAAAAAAAAAAAAAAAAAAAAAAAAAAAAAAAAAAAAAAAAAAAAAAAAAAAAAAAAAAAAAAAAAAAAAAAAAAAAAAAAAAAAAAAAAAAAAAAAAAAAAAAAAAAAAAAAAAAAAAAAAAAAAAAAAAAAAAAAAAAAAAAAAAAAAAAAAAAAAAAAAAAAAAAAAAAAAAAAAAAAAAAAAAAAAAAAAAAAAAAAAAAAAAAAAAAAAAAAAAAAAAAAAAAAAAAAAAAAAAAAAAAAAAAAAAAAAAAAAAAAAAAAAAAAAAAAAAAAAAAAAAAAAAAAAAAAAAAAAAAAAAAAAAAAAAAAAAAAAAAAAAAAAAAAAAAAAAAAAAAAAAAAAAAAAAAAAAAAAAAAAAAAAAAAAAAAAAAAAAAAAAAAAAAAAAAAAAAAAAAAAAAAAAAAAAAAAAAAAAAAAAAAAAAAAAAAAAAAAAAAAAAAAAAAAAAAAAAAAAAAAAAAAAAAAAAAAAAAAAAAAAAAAAAAAAAAAAAAAAAAAAAAAAAAAAAAAAAAAAAAAAAAAAAAAAAAAAAAAAAAAAAAAAAAAAAAAAAAAAAAAAAAAAAAAAAAAAAAAAAAAAAAAAAAAAAAAAAAAAAAAAAAAAAAAAAAAAAAAAAAAAAAAAAAAAAAAAAAAAAAAAAAAAAAAAAAAAAAAAAAAAAAAAAAAAAAAAAAAAAAAAAAAAAAAAAAAAAAAAAAAAAAAAAAAAAAAAAAAAAAAAAAAAAAAAAAAAAAAAAAAAAAAAAAAAAAAAAAAAAAAAAAAAAAAAAAAAAAAAAAAAAAAAAAAAAAAAAAAAAAAAAAAAAAAAAAAAAAAAAAAAAAAAAAAAAAAAAAAAAAAAAAAAAAAAAAAAAAAAAAAAAAAAAAAAAAAAAAAAAAAAAAAAAAAAAAAAAAAAAAAAAAAAAAAAAAAAAAAAAAAAAAAAAAAAAAAAAAAAAAAAAAAAAAAAAAAAAAAAAAAAAAAAAAAAAAAAAAAAAAAAAAAAAAAAAAAAAAAAAAAAAAAAAAAAAAAAAAAAAAAAAAAAAAAAAAAAAAAAAAAAAAAAAAAAAAAAAAAAAAAAAAAAAAAAAAAAAAAAAAAAAAAAAAAAAAAAAAAAAAAAAAAAAAAAAAAAAAAAAAAAAAAAAAAAAAAAAAAAAAAAAAAAAAAAAAAAAAAAAAAAAAAAAAAAAAAAAAAAAAAAAAAAAAAAAAAAAAAAAAAAAAAAAAAAAAAAAAAAAAAAAAAAAAAAAAAAAAAAAAAAAAAAAAAAAAAAAAAAAAAAAAAAAAAAAAAAAAAAAAAAAAAAAAAAAAAAAAAAAAAAAAAAAAAAAAAAAAAAAAAAAAAAAAAAAAAAAAAAAAAAAAAAAAAAAAAAAAAAAAAAAAAAAAAAAAAAAAAAAAAAAAAAAAAAAAAAAAAAAAAAAAAAAAAAAAAAAAAAAAAAAAAAAAAAAAAAAAAAAAAAAAAAAAAAAAAAAAAAAAAAAAAAAAAAAAAAAAAAAAAAAAAAAAAAAAAAAAAAAAAAAAAAAAAAAAAAAAAAAAAAAAAAAAAAAAAAAAAAAAAAAAAAAAAAAAAAAAAAAAAAAAAAAAAAAAAAAAAAAAAAAAAAAAAAAAAAAAAAAAAAAAAAAAAAAAAAAAAAAAAAAAAAAAAAAAAAAAAAAAAAAAAAAAAAAAAAAAAAAAAAAAAAAAAAAAAAAAAAAAAAAAAAAAAAAAAAAAAAAAAAAAAAAAAAAAAAAAAAAAAAAAAAAAAAAAAAAAAAAAAAAAAAAAAAAAAAAAAAAAAAAAAAAAAAAAAAAAAAAAAAAAAAAAAAAAAAAAAAAAAAAAAAAAAAAAAAAAAAAAAAAAAAAAAAAAAAAAAAAAAAAAAAAAAAAAAAAAAAAAAAAAAAAAAAAAAAAAAAAAAAAAAAAAAAAAAAAAAAAAAAAAAAAAAAAAAAAAAAAAAAAAAAAAAAAAAAAAAAAAAAAAAAAAAAAAAAAAAAAAAAAAAAAAAAAAAAAAAAAAAAAAAAAAAAAAAAAAAAAAAAAAAAAAAAAAAAAAAAAAAAAAAAAAAAAAAAAAAAAAAAAAAAAAAAAAAAAAAAAAAAAAAAAAAAAAAAAAAAAAAAAAAAAAAAAAAAAAAAAAAAAAAAAAAAAAAAAAAAAAAAAAAAAAAAAAAAAAAAAAAAAAAAAAAAAAAAAAAAAAAAAAAAAAAAAAAAAAAAAAAAAAAAAAAAAAAAAAAAAAAAAAAAAAAAAAAAAAAAAAAAAAAAAAAAAAAAAAAAAAAAAAAAAAAAAAPZYQKAlCV5pDhbcSD9l9veP7eeWpFcT6guciT34ua/RBiZOHCQjMBvNOkMqzYWV7x1QlXKmwnS8yvJJ7dYYkj3uQvs=</c2pa:manifest></metadata>
<style>
.vr-pop { transform-box:fill-box; transform-origin:50% 50%; }
@keyframes vr-kedut { 0%,100%{transform:scale(1) rotate(0)} 35%{transform:scale(1.3) rotate(-6deg)} 65%{transform:scale(1.15) rotate(5deg)} }
@keyframes vr-zoom { 0%{opacity:0;transform:scale(.5)} 60%{opacity:1;transform:scale(1.12)} 100%{opacity:1;transform:scale(1)} }
@keyframes vr-muncul { from{opacity:0;transform:translateY(8px)} to{opacity:1;transform:none} }
@keyframes vr-jatuh { from{opacity:0;transform:translateY(-26px)} to{opacity:1;transform:none} }
@keyframes vr-tampak { from{opacity:0} to{opacity:1} }
@media (prefers-reduced-motion: reduce){ [class*="vr-"] { animation:none !important; } }
</style>
<rect width="360" height="250" fill="#FFFFFF"/>
<g style="animation:vr-jatuh 0.3s ease-out 0.30s both;"><polygon points="132.7,88.0 150.0,98.0 150.0,78.0 132.7,68.0" fill="#F59E0B" stroke="#475569" stroke-width="1" stroke-linejoin="round" style="" /><polygon points="167.3,88.0 150.0,98.0 150.0,78.0 167.3,68.0" fill="#FDBA74" stroke="#475569" stroke-width="1" stroke-linejoin="round" style="" /><polygon points="150.0,58.0 167.3,68.0 150.0,78.0 132.7,68.0" fill="#FED7AA" stroke="#475569" stroke-width="1" stroke-linejoin="round" style="" /></g><g style="animation:vr-jatuh 0.3s ease-out 0.32s both;"><polygon points="115.4,98.0 132.7,108.0 132.7,88.0 115.4,78.0" fill="#F59E0B" stroke="#475569" stroke-width="1" stroke-linejoin="round" style="" /><polygon points="150.0,98.0 132.7,108.0 132.7,88.0 150.0,78.0" fill="#FDBA74" stroke="#475569" stroke-width="1" stroke-linejoin="round" style="" /><polygon points="132.7,68.0 150.0,78.0 132.7,88.0 115.4,78.0" fill="#FED7AA" stroke="#475569" stroke-width="1" stroke-linejoin="round" style="" /></g><g style="animation:vr-jatuh 0.3s ease-out 0.32s both;"><polygon points="150.0,98.0 167.3,108.0 167.3,88.0 150.0,78.0" fill="#F59E0B" stroke="#475569" stroke-width="1" stroke-linejoin="round" style="" /><polygon points="184.6,98.0 167.3,108.0 167.3,88.0 184.6,78.0" fill="#FDBA74" stroke="#475569" stroke-width="1" stroke-linejoin="round" style="" /><polygon points="167.3,68.0 184.6,78.0 167.3,88.0 150.0,78.0" fill="#FED7AA" stroke="#475569" stroke-width="1" stroke-linejoin="round" style="" /></g><g style="animation:vr-jatuh 0.3s ease-out 0.34s both;"><polygon points="98.0,108.0 115.4,118.0 115.4,98.0 98.0,88.0" fill="#F59E0B" stroke="#475569" stroke-width="1" stroke-linejoin="round" style="" /><polygon points="132.7,108.0 115.4,118.0 115.4,98.0 132.7,88.0" fill="#FDBA74" stroke="#475569" stroke-width="1" stroke-linejoin="round" style="" /><polygon points="115.4,78.0 132.7,88.0 115.4,98.0 98.0,88.0" fill="#FED7AA" stroke="#475569" stroke-width="1" stroke-linejoin="round" style="" /></g><g style="animation:vr-jatuh 0.3s ease-out 0.34s both;"><polygon points="132.7,108.0 150.0,118.0 150.0,98.0 132.7,88.0" fill="#F59E0B" stroke="#475569" stroke-width="1" stroke-linejoin="round" style="" /><polygon points="167.3,108.0 150.0,118.0 150.0,98.0 167.3,88.0" fill="#FDBA74" stroke="#475569" stroke-width="1" stroke-linejoin="round" style="" /><polygon points="150.0,78.0 167.3,88.0 150.0,98.0 132.7,88.0" fill="#FED7AA" stroke="#475569" stroke-width="1" stroke-linejoin="round" style="" /></g><g style="animation:vr-jatuh 0.3s ease-out 0.34s both;"><polygon points="167.3,108.0 184.6,118.0 184.6,98.0 167.3,88.0" fill="#F59E0B" stroke="#475569" stroke-width="1" stroke-linejoin="round" style="" /><polygon points="202.0,108.0 184.6,118.0 184.6,98.0 202.0,88.0" fill="#FDBA74" stroke="#475569" stroke-width="1" stroke-linejoin="round" style="" /><polygon points="184.6,78.0 202.0,88.0 184.6,98.0 167.3,88.0" fill="#FED7AA" stroke="#475569" stroke-width="1" stroke-linejoin="round" style="" /></g><g style="animation:vr-jatuh 0.3s ease-out 0.36s both;"><polygon points="80.7,118.0 98.0,128.0 98.0,108.0 80.7,98.0" fill="#F59E0B" stroke="#475569" stroke-width="1" stroke-linejoin="round" style="" /><polygon points="115.4,118.0 98.0,128.0 98.0,108.0 115.4,98.0" fill="#FDBA74" stroke="#475569" stroke-width="1" stroke-linejoin="round" style="" /><polygon points="98.0,88.0 115.4,98.0 98.0,108.0 80.7,98.0" fill="#FED7AA" stroke="#475569" stroke-width="1" stroke-linejoin="round" style="" /></g><g style="animation:vr-jatuh 0.3s ease-out 0.36s both;"><polygon points="115.4,118.0 132.7,128.0 132.7,108.0 115.4,98.0" fill="#F59E0B" stroke="#475569" stroke-width="1" stroke-linejoin="round" style="" /><polygon points="150.0,118.0 132.7,128.0 132.7,108.0 150.0,98.0" fill="#FDBA74" stroke="#475569" stroke-width="1" stroke-linejoin="round" style="" /><polygon points="132.7,88.0 150.0,98.0 132.7,108.0 115.4,98.0" fill="#FED7AA" stroke="#475569" stroke-width="1" stroke-linejoin="round" style="" /></g><g style="animation:vr-jatuh 0.3s ease-out 0.36s both;"><polygon points="150.0,118.0 167.3,128.0 167.3,108.0 150.0,98.0" fill="#F59E0B" stroke="#475569" stroke-width="1" stroke-linejoin="round" style="" /><polygon points="184.6,118.0 167.3,128.0 167.3,108.0 184.6,98.0" fill="#FDBA74" stroke="#475569" stroke-width="1" stroke-linejoin="round" style="" /><polygon points="167.3,88.0 184.6,98.0 167.3,108.0 150.0,98.0" fill="#FED7AA" stroke="#475569" stroke-width="1" stroke-linejoin="round" style="" /></g><g style="animation:vr-jatuh 0.3s ease-out 0.36s both;"><polygon points="184.6,118.0 202.0,128.0 202.0,108.0 184.6,98.0" fill="#F59E0B" stroke="#475569" stroke-width="1" stroke-linejoin="round" style="" /><polygon points="219.3,118.0 202.0,128.0 202.0,108.0 219.3,98.0" fill="#FDBA74" stroke="#475569" stroke-width="1" stroke-linejoin="round" style="" /><polygon points="202.0,88.0 219.3,98.0 202.0,108.0 184.6,98.0" fill="#FED7AA" stroke="#475569" stroke-width="1" stroke-linejoin="round" style="" /></g><g style="animation:vr-jatuh 0.3s ease-out 0.38s both;"><polygon points="98.0,128.0 115.4,138.0 115.4,118.0 98.0,108.0" fill="#F59E0B" stroke="#475569" stroke-width="1" stroke-linejoin="round" style="" /><polygon points="132.7,128.0 115.4,138.0 115.4,118.0 132.7,108.0" fill="#FDBA74" stroke="#475569" stroke-width="1" stroke-linejoin="round" style="" /><polygon points="115.4,98.0 132.7,108.0 115.4,118.0 98.0,108.0" fill="#FED7AA" stroke="#475569" stroke-width="1" stroke-linejoin="round" style="" /></g><g style="animation:vr-jatuh 0.3s ease-out 0.38s both;"><polygon points="132.7,128.0 150.0,138.0 150.0,118.0 132.7,108.0" fill="#F59E0B" stroke="#475569" stroke-width="1" stroke-linejoin="round" style="" /><polygon points="167.3,128.0 150.0,138.0 150.0,118.0 167.3,108.0" fill="#FDBA74" stroke="#475569" stroke-width="1" stroke-linejoin="round" style="" /><polygon points="150.0,98.0 167.3,108.0 150.0,118.0 132.7,108.0" fill="#FED7AA" stroke="#475569" stroke-width="1" stroke-linejoin="round" style="" /></g><g style="animation:vr-jatuh 0.3s ease-out 0.38s both;"><polygon points="167.3,128.0 184.6,138.0 184.6,118.0 167.3,108.0" fill="#F59E0B" stroke="#475569" stroke-width="1" stroke-linejoin="round" style="" /><polygon points="202.0,128.0 184.6,138.0 184.6,118.0 202.0,108.0" fill="#FDBA74" stroke="#475569" stroke-width="1" stroke-linejoin="round" style="" /><polygon points="184.6,98.0 202.0,108.0 184.6,118.0 167.3,108.0" fill="#FED7AA" stroke="#475569" stroke-width="1" stroke-linejoin="round" style="" /></g><g style="animation:vr-jatuh 0.3s ease-out 0.38s both;"><polygon points="202.0,128.0 219.3,138.0 219.3,118.0 202.0,108.0" fill="#F59E0B" stroke="#475569" stroke-width="1" stroke-linejoin="round" style="" /><polygon points="236.6,128.0 219.3,138.0 219.3,118.0 236.6,108.0" fill="#FDBA74" stroke="#475569" stroke-width="1" stroke-linejoin="round" style="" /><polygon points="219.3,98.0 236.6,108.0 219.3,118.0 202.0,108.0" fill="#FED7AA" stroke="#475569" stroke-width="1" stroke-linejoin="round" style="" /></g><g style="animation:vr-jatuh 0.3s ease-out 0.40s both;"><polygon points="115.4,138.0 132.7,148.0 132.7,128.0 115.4,118.0" fill="#F59E0B" stroke="#475569" stroke-width="1" stroke-linejoin="round" style="" /><polygon points="150.0,138.0 132.7,148.0 132.7,128.0 150.0,118.0" fill="#FDBA74" stroke="#475569" stroke-width="1" stroke-linejoin="round" style="" /><polygon points="132.7,108.0 150.0,118.0 132.7,128.0 115.4,118.0" fill="#FED7AA" stroke="#475569" stroke-width="1" stroke-linejoin="round" style="" /></g><g style="animation:vr-jatuh 0.3s ease-out 0.40s both;"><polygon points="150.0,138.0 167.3,148.0 167.3,128.0 150.0,118.0" fill="#F59E0B" stroke="#475569" stroke-width="1" stroke-linejoin="round" style="" /><polygon points="184.6,138.0 167.3,148.0 167.3,128.0 184.6,118.0" fill="#FDBA74" stroke="#475569" stroke-width="1" stroke-linejoin="round" style="" /><polygon points="167.3,108.0 184.6,118.0 167.3,128.0 150.0,118.0" fill="#FED7AA" stroke="#475569" stroke-width="1" stroke-linejoin="round" style="" /></g><g style="animation:vr-jatuh 0.3s ease-out 0.40s both;"><polygon points="184.6,138.0 202.0,148.0 202.0,128.0 184.6,118.0" fill="#F59E0B" stroke="#475569" stroke-width="1" stroke-linejoin="round" style="" /><polygon points="219.3,138.0 202.0,148.0 202.0,128.0 219.3,118.0" fill="#FDBA74" stroke="#475569" stroke-width="1" stroke-linejoin="round" style="" /><polygon points="202.0,108.0 219.3,118.0 202.0,128.0 184.6,118.0" fill="#FED7AA" stroke="#475569" stroke-width="1" stroke-linejoin="round" style="" /></g><g style="animation:vr-jatuh 0.3s ease-out 0.42s both;"><polygon points="132.7,148.0 150.0,158.0 150.0,138.0 132.7,128.0" fill="#F59E0B" stroke="#475569" stroke-width="1" stroke-linejoin="round" style="" /><polygon points="167.3,148.0 150.0,158.0 150.0,138.0 167.3,128.0" fill="#FDBA74" stroke="#475569" stroke-width="1" stroke-linejoin="round" style="" /><polygon points="150.0,118.0 167.3,128.0 150.0,138.0 132.7,128.0" fill="#FED7AA" stroke="#475569" stroke-width="1" stroke-linejoin="round" style="" /></g><g style="animation:vr-jatuh 0.3s ease-out 0.42s both;"><polygon points="167.3,148.0 184.6,158.0 184.6,138.0 167.3,128.0" fill="#F59E0B" stroke="#475569" stroke-width="1" stroke-linejoin="round" style="" /><polygon points="202.0,148.0 184.6,158.0 184.6,138.0 202.0,128.0" fill="#FDBA74" stroke="#475569" stroke-width="1" stroke-linejoin="round" style="" /><polygon points="184.6,118.0 202.0,128.0 184.6,138.0 167.3,128.0" fill="#FED7AA" stroke="#475569" stroke-width="1" stroke-linejoin="round" style="" /></g><g style="animation:vr-jatuh 0.3s ease-out 0.44s both;"><polygon points="150.0,158.0 167.3,168.0 167.3,148.0 150.0,138.0" fill="#F59E0B" stroke="#475569" stroke-width="1" stroke-linejoin="round" style="" /><polygon points="184.6,158.0 167.3,168.0 167.3,148.0 184.6,138.0" fill="#FDBA74" stroke="#475569" stroke-width="1" stroke-linejoin="round" style="" /><polygon points="167.3,128.0 184.6,138.0 167.3,148.0 150.0,138.0" fill="#FED7AA" stroke="#475569" stroke-width="1" stroke-linejoin="round" style="" /></g><g style="animation:vr-jatuh 0.3s ease-out 0.55s both;"><polygon points="132.7,68.0 150.0,78.0 150.0,58.0 132.7,48.0" fill="#F59E0B" stroke="#475569" stroke-width="1" stroke-linejoin="round" style="" /><polygon points="167.3,68.0 150.0,78.0 150.0,58.0 167.3,48.0" fill="#FDBA74" stroke="#475569" stroke-width="1" stroke-linejoin="round" style="" /><polygon points="150.0,38.0 167.3,48.0 150.0,58.0 132.7,48.0" fill="#FED7AA" stroke="#475569" stroke-width="1" stroke-linejoin="round" style="" /></g><g style="animation:vr-jatuh 0.3s ease-out 0.57s both;"><polygon points="115.4,78.0 132.7,88.0 132.7,68.0 115.4,58.0" fill="#F59E0B" stroke="#475569" stroke-width="1" stroke-linejoin="round" style="" /><polygon points="150.0,78.0 132.7,88.0 132.7,68.0 150.0,58.0" fill="#FDBA74" stroke="#475569" stroke-width="1" stroke-linejoin="round" style="" /><polygon points="132.7,48.0 150.0,58.0 132.7,68.0 115.4,58.0" fill="#FED7AA" stroke="#475569" stroke-width="1" stroke-linejoin="round" style="" /></g><g style="animation:vr-jatuh 0.3s ease-out 0.57s both;"><polygon points="150.0,78.0 167.3,88.0 167.3,68.0 150.0,58.0" fill="#F59E0B" stroke="#475569" stroke-width="1" stroke-linejoin="round" style="" /><polygon points="184.6,78.0 167.3,88.0 167.3,68.0 184.6,58.0" fill="#FDBA74" stroke="#475569" stroke-width="1" stroke-linejoin="round" style="" /><polygon points="167.3,48.0 184.6,58.0 167.3,68.0 150.0,58.0" fill="#FED7AA" stroke="#475569" stroke-width="1" stroke-linejoin="round" style="" /></g><g style="animation:vr-jatuh 0.3s ease-out 0.59s both;"><polygon points="98.0,88.0 115.4,98.0 115.4,78.0 98.0,68.0" fill="#F59E0B" stroke="#475569" stroke-width="1" stroke-linejoin="round" style="" /><polygon points="132.7,88.0 115.4,98.0 115.4,78.0 132.7,68.0" fill="#FDBA74" stroke="#475569" stroke-width="1" stroke-linejoin="round" style="" /><polygon points="115.4,58.0 132.7,68.0 115.4,78.0 98.0,68.0" fill="#FED7AA" stroke="#475569" stroke-width="1" stroke-linejoin="round" style="" /></g><g style="animation:vr-jatuh 0.3s ease-out 0.59s both;"><polygon points="132.7,88.0 150.0,98.0 150.0,78.0 132.7,68.0" fill="#F59E0B" stroke="#475569" stroke-width="1" stroke-linejoin="round" style="" /><polygon points="167.3,88.0 150.0,98.0 150.0,78.0 167.3,68.0" fill="#FDBA74" stroke="#475569" stroke-width="1" stroke-linejoin="round" style="" /><polygon points="150.0,58.0 167.3,68.0 150.0,78.0 132.7,68.0" fill="#FED7AA" stroke="#475569" stroke-width="1" stroke-linejoin="round" style="" /></g><g style="animation:vr-jatuh 0.3s ease-out 0.59s both;"><polygon points="167.3,88.0 184.6,98.0 184.6,78.0 167.3,68.0" fill="#F59E0B" stroke="#475569" stroke-width="1" stroke-linejoin="round" style="" /><polygon points="202.0,88.0 184.6,98.0 184.6,78.0 202.0,68.0" fill="#FDBA74" stroke="#475569" stroke-width="1" stroke-linejoin="round" style="" /><polygon points="184.6,58.0 202.0,68.0 184.6,78.0 167.3,68.0" fill="#FED7AA" stroke="#475569" stroke-width="1" stroke-linejoin="round" style="" /></g><g style="animation:vr-jatuh 0.3s ease-out 0.61s both;"><polygon points="80.7,98.0 98.0,108.0 98.0,88.0 80.7,78.0" fill="#F59E0B" stroke="#475569" stroke-width="1" stroke-linejoin="round" style="" /><polygon points="115.4,98.0 98.0,108.0 98.0,88.0 115.4,78.0" fill="#FDBA74" stroke="#475569" stroke-width="1" stroke-linejoin="round" style="" /><polygon points="98.0,68.0 115.4,78.0 98.0,88.0 80.7,78.0" fill="#FED7AA" stroke="#475569" stroke-width="1" stroke-linejoin="round" style="" /></g><g style="animation:vr-jatuh 0.3s ease-out 0.61s both;"><polygon points="115.4,98.0 132.7,108.0 132.7,88.0 115.4,78.0" fill="#F59E0B" stroke="#475569" stroke-width="1" stroke-linejoin="round" style="" /><polygon points="150.0,98.0 132.7,108.0 132.7,88.0 150.0,78.0" fill="#FDBA74" stroke="#475569" stroke-width="1" stroke-linejoin="round" style="" /><polygon points="132.7,68.0 150.0,78.0 132.7,88.0 115.4,78.0" fill="#FED7AA" stroke="#475569" stroke-width="1" stroke-linejoin="round" style="" /></g><g style="animation:vr-jatuh 0.3s ease-out 0.61s both;"><polygon points="150.0,98.0 167.3,108.0 167.3,88.0 150.0,78.0" fill="#F59E0B" stroke="#475569" stroke-width="1" stroke-linejoin="round" style="" /><polygon points="184.6,98.0 167.3,108.0 167.3,88.0 184.6,78.0" fill="#FDBA74" stroke="#475569" stroke-width="1" stroke-linejoin="round" style="" /><polygon points="167.3,68.0 184.6,78.0 167.3,88.0 150.0,78.0" fill="#FED7AA" stroke="#475569" stroke-width="1" stroke-linejoin="round" style="" /></g><g style="animation:vr-jatuh 0.3s ease-out 0.61s both;"><polygon points="184.6,98.0 202.0,108.0 202.0,88.0 184.6,78.0" fill="#F59E0B" stroke="#475569" stroke-width="1" stroke-linejoin="round" style="" /><polygon points="219.3,98.0 202.0,108.0 202.0,88.0 219.3,78.0" fill="#FDBA74" stroke="#475569" stroke-width="1" stroke-linejoin="round" style="" /><polygon points="202.0,68.0 219.3,78.0 202.0,88.0 184.6,78.0" fill="#FED7AA" stroke="#475569" stroke-width="1" stroke-linejoin="round" style="" /></g><g style="animation:vr-jatuh 0.3s ease-out 0.63s both;"><polygon points="98.0,108.0 115.4,118.0 115.4,98.0 98.0,88.0" fill="#F59E0B" stroke="#475569" stroke-width="1" stroke-linejoin="round" style="" /><polygon points="132.7,108.0 115.4,118.0 115.4,98.0 132.7,88.0" fill="#FDBA74" stroke="#475569" stroke-width="1" stroke-linejoin="round" style="" /><polygon points="115.4,78.0 132.7,88.0 115.4,98.0 98.0,88.0" fill="#FED7AA" stroke="#475569" stroke-width="1" stroke-linejoin="round" style="" /></g><g style="animation:vr-jatuh 0.3s ease-out 0.63s both;"><polygon points="132.7,108.0 150.0,118.0 150.0,98.0 132.7,88.0" fill="#F59E0B" stroke="#475569" stroke-width="1" stroke-linejoin="round" style="" /><polygon points="167.3,108.0 150.0,118.0 150.0,98.0 167.3,88.0" fill="#FDBA74" stroke="#475569" stroke-width="1" stroke-linejoin="round" style="" /><polygon points="150.0,78.0 167.3,88.0 150.0,98.0 132.7,88.0" fill="#FED7AA" stroke="#475569" stroke-width="1" stroke-linejoin="round" style="" /></g><g style="animation:vr-jatuh 0.3s ease-out 0.63s both;"><polygon points="167.3,108.0 184.6,118.0 184.6,98.0 167.3,88.0" fill="#F59E0B" stroke="#475569" stroke-width="1" stroke-linejoin="round" style="" /><polygon points="202.0,108.0 184.6,118.0 184.6,98.0 202.0,88.0" fill="#FDBA74" stroke="#475569" stroke-width="1" stroke-linejoin="round" style="" /><polygon points="184.6,78.0 202.0,88.0 184.6,98.0 167.3,88.0" fill="#FED7AA" stroke="#475569" stroke-width="1" stroke-linejoin="round" style="" /></g><g style="animation:vr-jatuh 0.3s ease-out 0.63s both;"><polygon points="202.0,108.0 219.3,118.0 219.3,98.0 202.0,88.0" fill="#F59E0B" stroke="#475569" stroke-width="1" stroke-linejoin="round" style="" /><polygon points="236.6,108.0 219.3,118.0 219.3,98.0 236.6,88.0" fill="#FDBA74" stroke="#475569" stroke-width="1" stroke-linejoin="round" style="" /><polygon points="219.3,78.0 236.6,88.0 219.3,98.0 202.0,88.0" fill="#FED7AA" stroke="#475569" stroke-width="1" stroke-linejoin="round" style="" /></g><g style="animation:vr-jatuh 0.3s ease-out 0.65s both;"><polygon points="115.4,118.0 132.7,128.0 132.7,108.0 115.4,98.0" fill="#F59E0B" stroke="#475569" stroke-width="1" stroke-linejoin="round" style="" /><polygon points="150.0,118.0 132.7,128.0 132.7,108.0 150.0,98.0" fill="#FDBA74" stroke="#475569" stroke-width="1" stroke-linejoin="round" style="" /><polygon points="132.7,88.0 150.0,98.0 132.7,108.0 115.4,98.0" fill="#FED7AA" stroke="#475569" stroke-width="1" stroke-linejoin="round" style="" /></g><g style="animation:vr-jatuh 0.3s ease-out 0.65s both;"><polygon points="150.0,118.0 167.3,128.0 167.3,108.0 150.0,98.0" fill="#F59E0B" stroke="#475569" stroke-width="1" stroke-linejoin="round" style="" /><polygon points="184.6,118.0 167.3,128.0 167.3,108.0 184.6,98.0" fill="#FDBA74" stroke="#475569" stroke-width="1" stroke-linejoin="round" style="" /><polygon points="167.3,88.0 184.6,98.0 167.3,108.0 150.0,98.0" fill="#FED7AA" stroke="#475569" stroke-width="1" stroke-linejoin="round" style="" /></g><g style="animation:vr-jatuh 0.3s ease-out 0.65s both;"><polygon points="184.6,118.0 202.0,128.0 202.0,108.0 184.6,98.0" fill="#F59E0B" stroke="#475569" stroke-width="1" stroke-linejoin="round" style="" /><polygon points="219.3,118.0 202.0,128.0 202.0,108.0 219.3,98.0" fill="#FDBA74" stroke="#475569" stroke-width="1" stroke-linejoin="round" style="" /><polygon points="202.0,88.0 219.3,98.0 202.0,108.0 184.6,98.0" fill="#FED7AA" stroke="#475569" stroke-width="1" stroke-linejoin="round" style="" /></g><g style="animation:vr-jatuh 0.3s ease-out 0.67s both;"><polygon points="132.7,128.0 150.0,138.0 150.0,118.0 132.7,108.0" fill="#F59E0B" stroke="#475569" stroke-width="1" stroke-linejoin="round" style="" /><polygon points="167.3,128.0 150.0,138.0 150.0,118.0 167.3,108.0" fill="#FDBA74" stroke="#475569" stroke-width="1" stroke-linejoin="round" style="" /><polygon points="150.0,98.0 167.3,108.0 150.0,118.0 132.7,108.0" fill="#FED7AA" stroke="#475569" stroke-width="1" stroke-linejoin="round" style="" /></g><g style="animation:vr-jatuh 0.3s ease-out 0.67s both;"><polygon points="167.3,128.0 184.6,138.0 184.6,118.0 167.3,108.0" fill="#F59E0B" stroke="#475569" stroke-width="1" stroke-linejoin="round" style="" /><polygon points="202.0,128.0 184.6,138.0 184.6,118.0 202.0,108.0" fill="#FDBA74" stroke="#475569" stroke-width="1" stroke-linejoin="round" style="" /><polygon points="184.6,98.0 202.0,108.0 184.6,118.0 167.3,108.0" fill="#FED7AA" stroke="#475569" stroke-width="1" stroke-linejoin="round" style="" /></g><g style="animation:vr-jatuh 0.3s ease-out 0.69s both;"><polygon points="150.0,138.0 167.3,148.0 167.3,128.0 150.0,118.0" fill="#F59E0B" stroke="#475569" stroke-width="1" stroke-linejoin="round" style="" /><polygon points="184.6,138.0 167.3,148.0 167.3,128.0 184.6,118.0" fill="#FDBA74" stroke="#475569" stroke-width="1" stroke-linejoin="round" style="" /><polygon points="167.3,108.0 184.6,118.0 167.3,128.0 150.0,118.0" fill="#FED7AA" stroke="#475569" stroke-width="1" stroke-linejoin="round" style="" /></g><g style="animation:vr-jatuh 0.3s ease-out 2.20s both;"><polygon points="132.7,48.0 150.0,58.0 150.0,38.0 132.7,28.0" fill="#60A5FA" stroke="#475569" stroke-width="1" stroke-linejoin="round" style="" /><polygon points="167.3,48.0 150.0,58.0 150.0,38.0 167.3,28.0" fill="#93C5FD" stroke="#475569" stroke-width="1" stroke-linejoin="round" style="" /><polygon points="150.0,18.0 167.3,28.0 150.0,38.0 132.7,28.0" fill="#BFDBFE" stroke="#475569" stroke-width="1" stroke-linejoin="round" style="" /></g><g style="animation:vr-jatuh 0.3s ease-out 2.22s both;"><polygon points="115.4,58.0 132.7,68.0 132.7,48.0 115.4,38.0" fill="#60A5FA" stroke="#475569" stroke-width="1" stroke-linejoin="round" style="" /><polygon points="150.0,58.0 132.7,68.0 132.7,48.0 150.0,38.0" fill="#93C5FD" stroke="#475569" stroke-width="1" stroke-linejoin="round" style="" /><polygon points="132.7,28.0 150.0,38.0 132.7,48.0 115.4,38.0" fill="#BFDBFE" stroke="#475569" stroke-width="1" stroke-linejoin="round" style="" /></g><g style="animation:vr-jatuh 0.3s ease-out 2.22s both;"><polygon points="150.0,58.0 167.3,68.0 167.3,48.0 150.0,38.0" fill="#60A5FA" stroke="#475569" stroke-width="1" stroke-linejoin="round" style="" /><polygon points="184.6,58.0 167.3,68.0 167.3,48.0 184.6,38.0" fill="#93C5FD" stroke="#475569" stroke-width="1" stroke-linejoin="round" style="" /><polygon points="167.3,28.0 184.6,38.0 167.3,48.0 150.0,38.0" fill="#BFDBFE" stroke="#475569" stroke-width="1" stroke-linejoin="round" style="" /></g><g style="animation:vr-jatuh 0.3s ease-out 2.24s both;"><polygon points="132.7,68.0 150.0,78.0 150.0,58.0 132.7,48.0" fill="#60A5FA" stroke="#475569" stroke-width="1" stroke-linejoin="round" style="" /><polygon points="167.3,68.0 150.0,78.0 150.0,58.0 167.3,48.0" fill="#93C5FD" stroke="#475569" stroke-width="1" stroke-linejoin="round" style="" /><polygon points="150.0,38.0 167.3,48.0 150.0,58.0 132.7,48.0" fill="#BFDBFE" stroke="#475569" stroke-width="1" stroke-linejoin="round" style="" /></g><g style="animation:vr-jatuh 0.3s ease-out 2.24s both;"><polygon points="167.3,68.0 184.6,78.0 184.6,58.0 167.3,48.0" fill="#60A5FA" stroke="#475569" stroke-width="1" stroke-linejoin="round" style="" /><polygon points="202.0,68.0 184.6,78.0 184.6,58.0 202.0,48.0" fill="#93C5FD" stroke="#475569" stroke-width="1" stroke-linejoin="round" style="" /><polygon points="184.6,38.0 202.0,48.0 184.6,58.0 167.3,48.0" fill="#BFDBFE" stroke="#475569" stroke-width="1" stroke-linejoin="round" style="" /></g><g style="animation:vr-jatuh 0.3s ease-out 2.26s both;"><polygon points="150.0,78.0 167.3,88.0 167.3,68.0 150.0,58.0" fill="#60A5FA" stroke="#475569" stroke-width="1" stroke-linejoin="round" style="" /><polygon points="184.6,78.0 167.3,88.0 167.3,68.0 184.6,58.0" fill="#93C5FD" stroke="#475569" stroke-width="1" stroke-linejoin="round" style="" /><polygon points="167.3,48.0 184.6,58.0 167.3,68.0 150.0,58.0" fill="#BFDBFE" stroke="#475569" stroke-width="1" stroke-linejoin="round" style="" /></g><g style="animation:vr-jatuh 0.3s ease-out 2.45s both;"><polygon points="132.7,28.0 150.0,38.0 150.0,18.0 132.7,8.0" fill="#60A5FA" stroke="#475569" stroke-width="1" stroke-linejoin="round" style="" /><polygon points="167.3,28.0 150.0,38.0 150.0,18.0 167.3,8.0" fill="#93C5FD" stroke="#475569" stroke-width="1" stroke-linejoin="round" style="" /><polygon points="150.0,-2.0 167.3,8.0 150.0,18.0 132.7,8.0" fill="#BFDBFE" stroke="#475569" stroke-width="1" stroke-linejoin="round" style="" /></g><g style="animation:vr-jatuh 0.3s ease-out 2.47s both;"><polygon points="115.4,38.0 132.7,48.0 132.7,28.0 115.4,18.0" fill="#60A5FA" stroke="#475569" stroke-width="1" stroke-linejoin="round" style="" /><polygon points="150.0,38.0 132.7,48.0 132.7,28.0 150.0,18.0" fill="#93C5FD" stroke="#475569" stroke-width="1" stroke-linejoin="round" style="" /><polygon points="132.7,8.0 150.0,18.0 132.7,28.0 115.4,18.0" fill="#BFDBFE" stroke="#475569" stroke-width="1" stroke-linejoin="round" style="" /></g><g style="animation:vr-jatuh 0.3s ease-out 2.47s both;"><polygon points="150.0,38.0 167.3,48.0 167.3,28.0 150.0,18.0" fill="#60A5FA" stroke="#475569" stroke-width="1" stroke-linejoin="round" style="" /><polygon points="184.6,38.0 167.3,48.0 167.3,28.0 184.6,18.0" fill="#93C5FD" stroke="#475569" stroke-width="1" stroke-linejoin="round" style="" /><polygon points="167.3,8.0 184.6,18.0 167.3,28.0 150.0,18.0" fill="#BFDBFE" stroke="#475569" stroke-width="1" stroke-linejoin="round" style="" /></g><g style="animation:vr-jatuh 0.3s ease-out 2.49s both;"><polygon points="132.7,48.0 150.0,58.0 150.0,38.0 132.7,28.0" fill="#60A5FA" stroke="#475569" stroke-width="1" stroke-linejoin="round" style="" /><polygon points="167.3,48.0 150.0,58.0 150.0,38.0 167.3,28.0" fill="#93C5FD" stroke="#475569" stroke-width="1" stroke-linejoin="round" style="" /><polygon points="150.0,18.0 167.3,28.0 150.0,38.0 132.7,28.0" fill="#BFDBFE" stroke="#475569" stroke-width="1" stroke-linejoin="round" style="" /></g><g style="animation:vr-jatuh 0.3s ease-out 2.49s both;"><polygon points="167.3,48.0 184.6,58.0 184.6,38.0 167.3,28.0" fill="#60A5FA" stroke="#475569" stroke-width="1" stroke-linejoin="round" style="" /><polygon points="202.0,48.0 184.6,58.0 184.6,38.0 202.0,28.0" fill="#93C5FD" stroke="#475569" stroke-width="1" stroke-linejoin="round" style="" /><polygon points="184.6,18.0 202.0,28.0 184.6,38.0 167.3,28.0" fill="#BFDBFE" stroke="#475569" stroke-width="1" stroke-linejoin="round" style="" /></g><g style="animation:vr-jatuh 0.3s ease-out 2.51s both;"><polygon points="150.0,58.0 167.3,68.0 167.3,48.0 150.0,38.0" fill="#60A5FA" stroke="#475569" stroke-width="1" stroke-linejoin="round" style="" /><polygon points="184.6,58.0 167.3,68.0 167.3,48.0 184.6,38.0" fill="#93C5FD" stroke="#475569" stroke-width="1" stroke-linejoin="round" style="" /><polygon points="167.3,28.0 184.6,38.0 167.3,48.0 150.0,38.0" fill="#BFDBFE" stroke="#475569" stroke-width="1" stroke-linejoin="round" style="" /></g><text class="" x="116.02" y="159.0" text-anchor="middle" style="font-size:13px;font-weight:800;fill:#EA580C;">5</text><text class="" x="213.95999999999998" y="160.0" text-anchor="middle" style="font-size:13px;font-weight:800;fill:#EA580C;">4</text><text class="" x="68.72" y="102.0" text-anchor="middle" style="font-size:13px;font-weight:800;fill:#EA580C;">2</text><text class="" x="184.64" y="78.0" text-anchor="middle" style="font-size:13px;font-weight:800;fill:#2563EB;"></text><text class="" x="300" y="56" text-anchor="middle" style="font-size:13px;font-weight:800;fill:#2563EB;animation:vr-muncul 0.4s ease-out 2s both;">3 × 2 × 2</text><text class="" x="300" y="74" text-anchor="middle" style="font-size:13px;font-weight:800;fill:#2563EB;animation:vr-muncul 0.4s ease-out 2.2s both;">= 12</text><text class="" x="180" y="214" text-anchor="middle" style="font-size:14px;font-weight:800;fill:#EA580C;animation:vr-muncul 0.4s ease-out 2.8s both;">5 × 4 × 2 = 40</text><text class="" x="180" y="238" text-anchor="middle" style="font-size:16px;font-weight:800;fill:#334155;animation:vr-muncul 0.4s ease-out 3.6s both;">40 + 12 = 52</text>
</svg>